<?xml version="1.0" encoding="UTF-8" standalone="no"?>
<!-- Generator: Adobe Illustrator 16.0.0, SVG Export Plug-In . SVG Version: 6.00 Build 0)  -->

<svg
   xmlns:dc="http://purl.org/dc/elements/1.1/"
   xmlns:cc="http://creativecommons.org/ns#"
   xmlns:rdf="http://www.w3.org/1999/02/22-rdf-syntax-ns#"
   xmlns:svg="http://www.w3.org/2000/svg"
   xmlns="http://www.w3.org/2000/svg"
   xmlns:sodipodi="http://sodipodi.sourceforge.net/DTD/sodipodi-0.dtd"
   xmlns:inkscape="http://www.inkscape.org/namespaces/inkscape"
   version="1.1"
   id="Layer_1"
   x="0px"
   y="0px"
   width="512px"
   height="512px"
   viewBox="0 0 512 512"
   enable-background="new 0 0 512 512"
   xml:space="preserve"
   inkscape:version="0.48.5 r10040"
   sodipodi:docname="volume-mute.svg"><metadata
     id="metadata19"><rdf:RDF><cc:Work
         rdf:about=""><dc:format>image/svg+xml</dc:format><dc:type
           rdf:resource="http://purl.org/dc/dcmitype/StillImage" /></cc:Work></rdf:RDF></metadata><defs
     id="defs17" /><sodipodi:namedview
     pagecolor="#ffffff"
     bordercolor="#666666"
     borderopacity="1"
     objecttolerance="10"
     gridtolerance="10"
     guidetolerance="10"
     inkscape:pageopacity="0"
     inkscape:pageshadow="2"
     inkscape:window-width="1920"
     inkscape:window-height="1018"
     id="namedview15"
     showgrid="false"
     inkscape:zoom="0.4609375"
     inkscape:cx="-168.13559"
     inkscape:cy="237.55932"
     inkscape:window-x="-2"
     inkscape:window-y="-3"
     inkscape:window-maximized="1"
     inkscape:current-layer="Layer_1" /><g
     id="g3"
     style="fill:#00c3f7;fill-opacity:1;stroke:none"><g
       id="g5"
       style="fill:#00c3f7;fill-opacity:1;stroke:none"><path
         fill="#1D1D1B"
         stroke="#1D1D1B"
         stroke-width="11.1516"
         stroke-linecap="round"
         stroke-linejoin="round"
         stroke-miterlimit="10"
         d="    M47.205,308.271h106.337l163.207-163.205V66.75L179.782,203.721H47.205c-12.317,0-22.303,9.986-22.303,22.303v59.939    C24.902,298.274,34.888,308.271,47.205,308.271z"
         id="path7"
         style="fill:#00c3f7;fill-opacity:1;stroke:none" /><polygon
         fill="#1D1D1B"
         stroke="#1D1D1B"
         stroke-width="11.1516"
         stroke-linecap="round"
         stroke-linejoin="round"
         stroke-miterlimit="10"
         points="    212.729,341.215 316.748,445.238 316.748,237.203   "
         id="polygon9"
         style="fill:#00c3f7;fill-opacity:1;stroke:none" /></g><path
       fill="#1D1D1B"
       d="M442.856,38.189c7.613-7.612,19.961-7.612,27.574,0l0,0c7.613,7.613,7.613,19.957,0,27.58L62.375,473.803   c-7.623,7.623-19.962,7.623-27.574,0l0,0c-7.623-7.601-7.623-19.95,0-27.573L442.856,38.189z"
       id="path11"
       style="fill:#00c3f7;fill-opacity:1;stroke:none" /><path
       fill="#1D1D1B"
       d="M432.13,130.19c61.616,89.049,53.002,212.365-26.225,291.591c-4.355,4.355-4.355,11.413,0,15.769   c2.179,2.178,5.032,3.268,7.885,3.268c2.854,0,5.707-1.09,7.886-3.268c87.938-87.938,96.553-225.33,26.386-323.297L432.13,130.19z"
       id="path13"
       style="fill:#00c3f7;fill-opacity:1;stroke:none" /></g></svg>